<svg width="24" height="21" viewBox="0 0 24 21" fill="none" xmlns="http://www.w3.org/2000/svg">
<path d="M1 20H23M19.78 20.01V15.55M2.09998 20V4.03003C2.09998 2.02003 3.10003 1.01001 5.09003 1.01001H11.32C13.31 1.01001 14.3 2.02003 14.3 4.03003V20M5.79999 6.25H10.75M5.79999 10H10.75M8.25 20V16.25M19.8 8.89001C18.58 8.89001 17.6 9.87003 17.6 11.09V13.36C17.6 14.58 18.58 15.56 19.8 15.56C21.02 15.56 22 14.58 22 13.36V11.09C22 9.87003 21.02 8.89001 19.8 8.89001Z" stroke="#292D32" stroke-width="1.5" stroke-miterlimit="10" stroke-linecap="round" stroke-linejoin="round"/>
</svg>
