<svg width="22" height="22" viewBox="0 0 22 22" fill="none" xmlns="http://www.w3.org/2000/svg">
<path d="M11.8711 5.32583C13.071 5.52693 14.1609 6.09365 15.0311 6.96202C15.9012 7.83038 16.4645 8.91812 16.6706 10.1156M12.0543 1.3999C14.1884 1.76096 16.1348 2.771 17.6828 4.31121C19.2307 5.85598 20.2382 7.79838 20.6 9.92816M18.933 18.4016C18.933 18.4016 17.7743 19.5396 17.4904 19.8732C17.0278 20.3668 16.4828 20.5999 15.7684 20.5999C15.6997 20.5999 15.6264 20.5999 15.5577 20.5953C14.1976 20.5085 12.9336 19.9783 11.9856 19.5259C9.39347 18.2736 7.11736 16.4957 5.22594 14.2426C3.66427 12.3641 2.6201 10.6274 1.92856 8.76272C1.50265 7.6247 1.34694 6.73806 1.41564 5.90168C1.46143 5.36695 1.66752 4.92363 2.04763 4.54429L3.60931 2.98581C3.83372 2.77557 4.07186 2.66131 4.30542 2.66131C4.59395 2.66131 4.82751 2.83499 4.97406 2.98124C4.97864 2.98581 4.98322 2.99038 4.9878 2.99495C5.26716 3.25546 5.53278 3.52511 5.81214 3.81304C5.95412 3.95929 6.10067 4.10554 6.24722 4.25636L7.49747 5.50407C7.98292 5.98852 7.98292 6.43641 7.49747 6.92087C7.36466 7.05341 7.23643 7.18595 7.10362 7.31392C6.71892 7.70697 7.02112 7.40539 6.62269 7.76187C6.61353 7.77101 6.60437 7.77558 6.59979 7.78472C6.20594 8.17777 6.27921 8.56168 6.36165 8.82219C6.36623 8.8359 6.37081 8.84961 6.37539 8.86332C6.70055 9.64942 7.15852 10.3898 7.85463 11.2719L7.85921 11.2765C9.12321 12.8304 10.4559 14.0415 11.926 14.9693C12.1137 15.0881 12.3061 15.1841 12.4893 15.2755C12.6542 15.3578 12.8099 15.4355 12.9427 15.5177C12.961 15.5269 12.9793 15.5406 12.9976 15.5497C13.1533 15.6274 13.2999 15.664 13.451 15.664C13.8311 15.664 14.0693 15.4263 14.1471 15.3486L15.0448 14.4528C15.2005 14.2974 15.4478 14.11 15.7363 14.11C16.0203 14.11 16.2539 14.2883 16.3958 14.4436C16.4004 14.4482 16.4004 14.4482 16.405 14.4528L18.9284 16.971C19.4001 17.4372 18.933 18.4016 18.933 18.4016Z" stroke="black" stroke-width="2" stroke-linecap="round" stroke-linejoin="round"/>
</svg>
