<svg width="25" height="25" viewBox="0 0 25 25" fill="none" xmlns="http://www.w3.org/2000/svg">
<g clip-path="url(#clip0_111_768)">
<path fill-rule="evenodd" clip-rule="evenodd" d="M11.6071 2.67857C6.67604 2.67857 2.67857 6.67604 2.67857 11.6071C2.67857 16.5382 6.67604 20.5357 11.6071 20.5357C16.5382 20.5357 20.5357 16.5382 20.5357 11.6071C20.5357 6.67604 16.5382 2.67857 11.6071 2.67857ZM0 11.6071C0 5.1967 5.1967 0 11.6071 0C18.0177 0 23.2143 5.1967 23.2143 11.6071C23.2143 14.168 22.385 16.5352 20.9802 18.4548L24.4773 21.952C25.1748 22.6493 25.1748 23.78 24.4773 24.4773C23.78 25.1746 22.6495 25.1746 21.952 24.4773L18.4548 20.9802C16.5352 22.385 14.168 23.2143 11.6071 23.2143C5.1967 23.2143 0 18.0177 0 11.6071ZM10.2484 6.90984C10.5702 5.43975 12.6634 5.43059 12.9981 6.89782L13.0135 6.96555C13.0239 7.01154 13.0335 7.05382 13.0438 7.09802C13.4158 8.6822 14.6979 9.89268 16.3027 10.1719C17.8367 10.4387 17.8367 12.6408 16.3027 12.9076C14.6893 13.1883 13.4021 14.4102 13.038 16.0069L12.9981 16.1817C12.6634 17.6489 10.5702 17.6398 10.2484 16.1697L10.2156 16.0197C9.8648 14.4173 8.57943 13.1863 6.96334 12.9052C5.43218 12.6388 5.43216 10.4407 6.96334 10.1744C8.5738 9.89418 9.85586 8.6708 10.2119 7.07657L10.2361 6.9665L10.2484 6.90984Z" fill="white"/>
</g>
<defs>
<clipPath id="clip0_111_768">
<rect width="25" height="25" fill="white"/>
</clipPath>
</defs>
</svg>
